<svg width="24" height="17" viewBox="0 0 24 17" fill="none" xmlns="http://www.w3.org/2000/svg">
<path fill-rule="evenodd" clip-rule="evenodd" d="M0 2.27368C0 1.01796 1.01796 0 2.27368 0H21.7263C22.982 0 24 1.01796 24 2.27368V14.7263C24 15.982 22.982 17 21.7263 17H2.27368C1.01796 17 0 15.982 0 14.7263V2.27368Z" fill="#224DBA"/>
<path fill-rule="evenodd" clip-rule="evenodd" d="M8.17711 11.3379H6.77071L5.71609 7.25788C5.66603 7.0702 5.55974 6.90428 5.4034 6.82608C5.01323 6.62956 4.58329 6.47316 4.11426 6.39428V6.2372H6.37986C6.69254 6.2372 6.92706 6.47316 6.96614 6.7472L7.51334 9.69024L8.91906 6.2372H10.2864L8.17711 11.3379ZM11.0685 11.3379H9.74023L10.8339 6.2372H12.1622L11.0685 11.3379ZM13.8802 7.65055C13.9193 7.37583 14.1538 7.21875 14.4274 7.21875C14.8573 7.17931 15.3257 7.25819 15.7165 7.45403L15.9511 6.35583C15.5602 6.19875 15.1303 6.11987 14.7401 6.11987C13.4509 6.11987 12.5129 6.82639 12.5129 7.80695C12.5129 8.55291 13.1773 8.94459 13.6464 9.18055C14.1538 9.41583 14.3492 9.57291 14.3101 9.80819C14.3101 10.1611 13.9193 10.3182 13.5291 10.3182C13.0601 10.3182 12.5911 10.2006 12.1618 10.004L11.9273 11.1029C12.3963 11.2988 12.9037 11.3776 13.3728 11.3776C14.8183 11.4164 15.7165 10.7106 15.7165 9.65111C15.7165 8.31695 13.8802 8.23875 13.8802 7.65055ZM20.3653 11.3379L19.3106 6.2372H18.1778C17.9433 6.2372 17.7088 6.39428 17.6306 6.62956L15.6777 11.3379H17.045L17.318 10.5926H18.998L19.1543 11.3379H20.3653ZM18.3735 7.61078L18.7636 9.53314H17.6699L18.3735 7.61078Z" fill="white"/>
</svg>
