<svg width="22" height="22" viewBox="0 0 22 22" fill="none" xmlns="http://www.w3.org/2000/svg">
<path fill-rule="evenodd" clip-rule="evenodd" d="M2 11C2 6.02944 6.02944 2 11 2C15.9706 2 20 6.02944 20 11C20 15.9706 15.9706 20 11 20C6.02944 20 2 15.9706 2 11ZM11 0C4.92487 0 0 4.92487 0 11C0 17.0751 4.92487 22 11 22C17.0751 22 22 17.0751 22 11C22 4.92487 17.0751 0 11 0ZM9.50001 7C9.49805 6 9.99935 5 10.9999 5C12.0005 5 12.4979 6 12.4999 7C12.5018 8 12.5004 13 10.9999 13C9.51116 13 9.50201 8.0776 9.50005 7.0241L9.50001 7ZM10 15C10 14.4477 10.4477 14 11 14H11.01C11.5623 14 12.01 14.4477 12.01 15C12.01 15.5523 11.5623 16 11.01 16H11C10.4477 16 10 15.5523 10 15Z" fill="#C34648"/>
</svg>
